<?xml version="1.0" encoding="utf-8" standalone="no"?>
<!DOCTYPE svg PUBLIC "-//W3C//DTD SVG 1.1//EN"
  "http://www.w3.org/Graphics/SVG/1.1/DTD/svg11.dtd">
<svg height="648pt" version="1.1" viewBox="0 0 864 648" width="864pt" xmlns="http://www.w3.org/2000/svg" xmlns:xlink="http://www.w3.org/1999/xlink">
 <metadata>
  <rdf:RDF xmlns:cc="http://creativecommons.org/ns#" xmlns:dc="http://purl.org/dc/elements/1.1/" xmlns:rdf="http://www.w3.org/1999/02/22-rdf-syntax-ns#">
   <cc:Work>
    <dc:type rdf:resource="http://purl.org/dc/dcmitype/StillImage"/>
    <dc:date>2023-03-05T11:07:29.107462</dc:date>
    <dc:format>image/svg+xml</dc:format>
    <dc:creator>
     <cc:Agent>
      <dc:title>Matplotlib v3.4.3, https://matplotlib.org/</dc:title>
     </cc:Agent>
    </dc:creator>
   </cc:Work>
  </rdf:RDF>
 </metadata>
 <defs>
  <style type="text/css">*{stroke-linecap:butt;stroke-linejoin:round;}</style>
 </defs>
 <g id="figure_1">
  <g id="patch_1">
   <path d="M 0 648 
L 864 648 
L 864 0 
L 0 0 
z
" style="fill:#f5f5f5;"/>
  </g>
  <g id="axes_1">
   <g id="patch_2">
    <path d="M 108 576.72 
L 777.6 576.72 
L 777.6 77.76 
L 108 77.76 
z
" style="fill:#ffffff;"/>
   </g>
   <g id="matplotlib.axis_1">
    <g id="xtick_1">
     <g id="line2d_1">
      <path clip-path="url(#pccbe58a951)" d="M 219.6 576.72 
L 219.6 77.76 
" style="fill:none;stroke:#000000;stroke-linecap:square;stroke-opacity:0.1;stroke-width:0.6;"/>
     </g>
     <g id="line2d_2">
      <defs>
       <path d="M 0 0 
L 0 4 
" id="md931ba64b1" style="stroke:#000000;stroke-width:0.6;"/>
      </defs>
      <g>
       <use style="stroke:#000000;stroke-width:0.6;" x="219.6" xlink:href="#md931ba64b1" y="576.72"/>
      </g>
     </g>
     <g id="text_1">
      <!-- Ble -->
      <g transform="translate(203.705 598.759375)scale(0.22 -0.22)">
       <defs>
        <path d="M 3987 1331 
Q 3987 749 3609 374 
Q 3232 0 2611 0 
L 506 0 
L 506 4666 
L 2400 4666 
Q 3046 4666 3414 4336 
Q 3782 4006 3782 3482 
Q 3782 2765 3136 2464 
Q 3584 2291 3785 2022 
Q 3987 1754 3987 1331 
z
M 2253 2656 
Q 3187 2656 3187 3398 
Q 3187 4141 2253 4141 
L 1101 4141 
L 1101 2656 
L 2253 2656 
z
M 3392 1325 
Q 3392 1683 3177 1907 
Q 2963 2131 2554 2131 
L 1101 2131 
L 1101 525 
L 2554 525 
Q 2957 525 3174 749 
Q 3392 973 3392 1325 
z
" id="TeXGyreHeros-Regular-42" transform="scale(0.015625)"/>
        <path d="M 966 0 
L 435 0 
L 435 4666 
L 966 4666 
L 966 0 
z
" id="TeXGyreHeros-Regular-6c" transform="scale(0.015625)"/>
        <path d="M 3283 1523 
L 813 1523 
Q 819 966 1091 681 
Q 1363 397 1798 397 
Q 2470 397 2675 1018 
L 3213 1018 
Q 3110 506 2729 205 
Q 2349 -96 1779 -96 
Q 1069 -96 662 368 
Q 256 832 256 1657 
Q 256 2483 672 2966 
Q 1088 3450 1792 3450 
Q 2266 3450 2627 3213 
Q 2989 2976 3149 2566 
Q 3283 2214 3283 1523 
z
M 2714 1997 
Q 2714 2394 2445 2675 
Q 2176 2957 1786 2957 
Q 1382 2957 1120 2681 
Q 858 2406 826 1958 
L 2707 1958 
L 2714 1997 
z
" id="TeXGyreHeros-Regular-65" transform="scale(0.015625)"/>
       </defs>
       <use xlink:href="#TeXGyreHeros-Regular-42"/>
       <use x="66.699997" xlink:href="#TeXGyreHeros-Regular-6c"/>
       <use x="88.899994" xlink:href="#TeXGyreHeros-Regular-65"/>
      </g>
     </g>
    </g>
    <g id="xtick_2">
     <g id="line2d_3">
      <path clip-path="url(#pccbe58a951)" d="M 442.8 576.72 
L 442.8 77.76 
" style="fill:none;stroke:#000000;stroke-linecap:square;stroke-opacity:0.1;stroke-width:0.6;"/>
     </g>
     <g id="line2d_4">
      <g>
       <use style="stroke:#000000;stroke-width:0.6;" x="442.8" xlink:href="#md931ba64b1" y="576.72"/>
      </g>
     </g>
     <g id="text_2">
      <!-- Ble-VILI -->
      <g transform="translate(403.674375 598.759375)scale(0.22 -0.22)">
       <defs>
        <path d="M 1818 1536 
L 294 1536 
L 294 1997 
L 1818 1997 
L 1818 1536 
z
" id="TeXGyreHeros-Regular-2d" transform="scale(0.015625)"/>
        <path d="M 4128 4666 
L 2509 0 
L 1869 0 
L 192 4666 
L 832 4666 
L 2202 717 
L 3494 4666 
L 4128 4666 
z
" id="TeXGyreHeros-Regular-56" transform="scale(0.015625)"/>
        <path d="M 1235 0 
L 640 0 
L 640 4666 
L 1235 4666 
L 1235 0 
z
" id="TeXGyreHeros-Regular-49" transform="scale(0.015625)"/>
        <path d="M 3411 0 
L 512 0 
L 512 4666 
L 1107 4666 
L 1107 525 
L 3411 525 
L 3411 0 
z
" id="TeXGyreHeros-Regular-4c" transform="scale(0.015625)"/>
       </defs>
       <use xlink:href="#TeXGyreHeros-Regular-42"/>
       <use x="66.699997" xlink:href="#TeXGyreHeros-Regular-6c"/>
       <use x="88.899994" xlink:href="#TeXGyreHeros-Regular-65"/>
       <use x="144.499985" xlink:href="#TeXGyreHeros-Regular-2d"/>
       <use x="177.799973" xlink:href="#TeXGyreHeros-Regular-56"/>
       <use x="244.499969" xlink:href="#TeXGyreHeros-Regular-49"/>
       <use x="272.299957" xlink:href="#TeXGyreHeros-Regular-4c"/>
       <use x="327.899948" xlink:href="#TeXGyreHeros-Regular-49"/>
      </g>
     </g>
    </g>
    <g id="xtick_3">
     <g id="line2d_5">
      <path clip-path="url(#pccbe58a951)" d="M 666 576.72 
L 666 77.76 
" style="fill:none;stroke:#000000;stroke-linecap:square;stroke-opacity:0.1;stroke-width:0.6;"/>
     </g>
     <g id="line2d_6">
      <g>
       <use style="stroke:#000000;stroke-width:0.6;" x="666" xlink:href="#md931ba64b1" y="576.72"/>
      </g>
     </g>
     <g id="text_3">
      <!-- Con-VILI -->
      <g transform="translate(622.596406 598.759375)scale(0.22 -0.22)">
       <defs>
        <path d="M 4333 1702 
Q 4122 -115 2413 -115 
Q 1414 -115 860 553 
Q 307 1222 307 2278 
Q 307 3354 864 4067 
Q 1421 4781 2438 4781 
Q 3955 4781 4237 3219 
L 3629 3219 
Q 3520 3757 3216 4006 
Q 2912 4256 2368 4256 
Q 1696 4256 1299 3721 
Q 902 3187 902 2285 
Q 902 1414 1312 912 
Q 1722 410 2419 410 
Q 3002 410 3306 720 
Q 3610 1030 3718 1702 
L 4333 1702 
z
" id="TeXGyreHeros-Regular-43" transform="scale(0.015625)"/>
        <path d="M 3264 1651 
Q 3264 826 2861 365 
Q 2458 -96 1747 -96 
Q 1030 -96 630 368 
Q 230 832 230 1677 
Q 230 2515 630 2982 
Q 1030 3450 1741 3450 
Q 2470 3450 2867 2982 
Q 3264 2515 3264 1651 
z
M 2707 1658 
Q 2707 2278 2454 2617 
Q 2202 2957 1747 2957 
Q 1299 2957 1043 2617 
Q 787 2278 787 1677 
Q 787 1069 1043 733 
Q 1299 397 1747 397 
Q 2189 397 2448 733 
Q 2707 1069 2707 1658 
z
" id="TeXGyreHeros-Regular-6f" transform="scale(0.015625)"/>
        <path d="M 3117 0 
L 2586 0 
L 2586 2323 
Q 2586 2624 2400 2803 
Q 2214 2982 1894 2982 
Q 1485 2982 1232 2672 
Q 979 2362 979 1850 
L 979 0 
L 448 0 
L 448 3354 
L 941 3354 
L 941 2790 
Q 1165 3142 1424 3296 
Q 1683 3450 2054 3450 
Q 2541 3450 2829 3200 
Q 3117 2950 3117 2534 
L 3117 0 
z
" id="TeXGyreHeros-Regular-6e" transform="scale(0.015625)"/>
       </defs>
       <use xlink:href="#TeXGyreHeros-Regular-43"/>
       <use x="72.199982" xlink:href="#TeXGyreHeros-Regular-6f"/>
       <use x="127.799973" xlink:href="#TeXGyreHeros-Regular-6e"/>
       <use x="183.399963" xlink:href="#TeXGyreHeros-Regular-2d"/>
       <use x="216.699951" xlink:href="#TeXGyreHeros-Regular-56"/>
       <use x="283.399948" xlink:href="#TeXGyreHeros-Regular-49"/>
       <use x="311.199936" xlink:href="#TeXGyreHeros-Regular-4c"/>
       <use x="366.799927" xlink:href="#TeXGyreHeros-Regular-49"/>
      </g>
     </g>
    </g>
    <g id="xtick_4">
     <g id="line2d_7">
      <defs>
       <path d="M 0 0 
L 0 2 
" id="m46a61f08e6" style="stroke:#000000;stroke-width:0.48;"/>
      </defs>
      <g>
       <use style="stroke:#000000;stroke-width:0.48;" x="130.32" xlink:href="#m46a61f08e6" y="576.72"/>
      </g>
     </g>
    </g>
    <g id="xtick_5">
     <g id="line2d_8">
      <g>
       <use style="stroke:#000000;stroke-width:0.48;" x="174.96" xlink:href="#m46a61f08e6" y="576.72"/>
      </g>
     </g>
    </g>
    <g id="xtick_6">
     <g id="line2d_9">
      <g>
       <use style="stroke:#000000;stroke-width:0.48;" x="264.24" xlink:href="#m46a61f08e6" y="576.72"/>
      </g>
     </g>
    </g>
    <g id="xtick_7">
     <g id="line2d_10">
      <g>
       <use style="stroke:#000000;stroke-width:0.48;" x="308.88" xlink:href="#m46a61f08e6" y="576.72"/>
      </g>
     </g>
    </g>
    <g id="xtick_8">
     <g id="line2d_11">
      <g>
       <use style="stroke:#000000;stroke-width:0.48;" x="353.52" xlink:href="#m46a61f08e6" y="576.72"/>
      </g>
     </g>
    </g>
    <g id="xtick_9">
     <g id="line2d_12">
      <g>
       <use style="stroke:#000000;stroke-width:0.48;" x="398.16" xlink:href="#m46a61f08e6" y="576.72"/>
      </g>
     </g>
    </g>
    <g id="xtick_10">
     <g id="line2d_13">
      <g>
       <use style="stroke:#000000;stroke-width:0.48;" x="487.44" xlink:href="#m46a61f08e6" y="576.72"/>
      </g>
     </g>
    </g>
    <g id="xtick_11">
     <g id="line2d_14">
      <g>
       <use style="stroke:#000000;stroke-width:0.48;" x="532.08" xlink:href="#m46a61f08e6" y="576.72"/>
      </g>
     </g>
    </g>
    <g id="xtick_12">
     <g id="line2d_15">
      <g>
       <use style="stroke:#000000;stroke-width:0.48;" x="576.72" xlink:href="#m46a61f08e6" y="576.72"/>
      </g>
     </g>
    </g>
    <g id="xtick_13">
     <g id="line2d_16">
      <g>
       <use style="stroke:#000000;stroke-width:0.48;" x="621.36" xlink:href="#m46a61f08e6" y="576.72"/>
      </g>
     </g>
    </g>
    <g id="xtick_14">
     <g id="line2d_17">
      <g>
       <use style="stroke:#000000;stroke-width:0.48;" x="710.64" xlink:href="#m46a61f08e6" y="576.72"/>
      </g>
     </g>
    </g>
    <g id="xtick_15">
     <g id="line2d_18">
      <g>
       <use style="stroke:#000000;stroke-width:0.48;" x="755.28" xlink:href="#m46a61f08e6" y="576.72"/>
      </g>
     </g>
    </g>
    <g id="text_4">
     <!-- study Groups -->
     <g transform="translate(368.467969 626.230469)scale(0.25 -0.25)">
      <defs>
       <path d="M 2938 941 
Q 2938 461 2563 182 
Q 2189 -96 1555 -96 
Q 896 -96 566 176 
Q 237 448 218 1024 
L 781 1024 
Q 832 659 1024 528 
Q 1216 397 1600 397 
Q 1952 397 2166 531 
Q 2381 666 2381 896 
Q 2381 1075 2262 1171 
Q 2144 1267 1862 1338 
L 1363 1459 
Q 768 1600 534 1814 
Q 301 2029 301 2426 
Q 301 2893 653 3171 
Q 1005 3450 1587 3450 
Q 2170 3450 2483 3181 
Q 2797 2912 2803 2419 
L 2240 2419 
Q 2221 2957 1568 2957 
Q 1242 2957 1050 2819 
Q 858 2682 858 2451 
Q 858 2272 1005 2160 
Q 1152 2048 1478 1971 
L 1990 1850 
Q 2496 1728 2717 1520 
Q 2938 1312 2938 941 
z
" id="TeXGyreHeros-Regular-73" transform="scale(0.015625)"/>
       <path d="M 1626 0 
Q 1376 -45 1190 -45 
Q 877 -45 710 92 
Q 544 230 544 486 
L 544 2918 
L 90 2918 
L 90 3354 
L 544 3354 
L 544 4275 
L 1075 4275 
L 1075 3354 
L 1626 3354 
L 1626 2918 
L 1075 2918 
L 1075 723 
Q 1075 544 1136 483 
Q 1197 422 1370 422 
Q 1530 422 1626 448 
L 1626 0 
z
" id="TeXGyreHeros-Regular-74" transform="scale(0.015625)"/>
       <path d="M 3085 0 
L 2605 0 
L 2605 518 
Q 2368 186 2112 45 
Q 1856 -96 1485 -96 
Q 998 -96 707 153 
Q 416 403 416 819 
L 416 3354 
L 947 3354 
L 947 1030 
Q 947 730 1132 550 
Q 1318 371 1638 371 
Q 2054 371 2304 681 
Q 2554 992 2554 1504 
L 2554 3354 
L 3085 3354 
L 3085 0 
z
" id="TeXGyreHeros-Regular-75" transform="scale(0.015625)"/>
       <path d="M 3168 0 
L 2694 0 
L 2694 493 
Q 2477 179 2224 41 
Q 1971 -96 1626 -96 
Q 947 -96 556 384 
Q 166 864 166 1709 
Q 166 2509 560 2979 
Q 954 3450 1606 3450 
Q 2298 3450 2637 2931 
L 2637 4666 
L 3168 4666 
L 3168 0 
z
M 2637 1664 
Q 2637 2246 2381 2598 
Q 2125 2950 1696 2950 
Q 1254 2950 988 2604 
Q 723 2259 723 1676 
Q 723 1094 992 748 
Q 1261 403 1702 403 
Q 2125 403 2381 745 
Q 2637 1088 2637 1664 
z
" id="TeXGyreHeros-Regular-64" transform="scale(0.015625)"/>
       <path d="M 3059 3354 
L 1568 -704 
Q 1312 -1395 704 -1395 
Q 506 -1395 346 -1312 
L 346 -832 
Q 518 -870 627 -870 
Q 800 -870 893 -796 
Q 986 -723 1056 -544 
L 1261 -13 
L 128 3354 
L 698 3354 
L 1555 742 
L 2483 3354 
L 3059 3354 
z
" id="TeXGyreHeros-Regular-79" transform="scale(0.015625)"/>
       <path id="TeXGyreHeros-Regular-20" transform="scale(0.015625)"/>
       <path d="M 4538 0 
L 4160 0 
L 4013 614 
Q 3360 -115 2419 -115 
Q 1472 -115 877 547 
Q 282 1210 282 2285 
Q 282 3366 880 4073 
Q 1478 4781 2522 4781 
Q 3322 4781 3834 4374 
Q 4346 3968 4474 3251 
L 3866 3251 
Q 3770 3706 3405 3981 
Q 3040 4256 2515 4256 
Q 1779 4256 1328 3718 
Q 877 3181 877 2317 
Q 877 1453 1321 931 
Q 1766 410 2547 410 
Q 3187 410 3600 800 
Q 4013 1190 4013 1811 
L 4013 1939 
L 2592 1939 
L 2592 2464 
L 4538 2464 
L 4538 0 
z
" id="TeXGyreHeros-Regular-47" transform="scale(0.015625)"/>
       <path d="M 2054 2886 
Q 1453 2880 1216 2605 
Q 979 2330 979 1741 
L 979 0 
L 448 0 
L 448 3354 
L 934 3354 
L 934 2746 
Q 1165 3123 1379 3286 
Q 1594 3450 1850 3450 
Q 1920 3450 2054 3430 
L 2054 2886 
z
" id="TeXGyreHeros-Regular-72" transform="scale(0.015625)"/>
       <path d="M 3347 1645 
Q 3347 845 2956 374 
Q 2566 -96 1914 -96 
Q 1293 -96 883 403 
L 883 -1395 
L 352 -1395 
L 352 3354 
L 838 3354 
L 838 2848 
Q 1216 3450 1907 3450 
Q 2579 3450 2963 2970 
Q 3347 2490 3347 1645 
z
M 2790 1658 
Q 2790 2253 2524 2601 
Q 2259 2950 1818 2950 
Q 1395 2950 1139 2595 
Q 883 2240 883 1651 
Q 883 1069 1136 736 
Q 1389 403 1818 403 
Q 2253 403 2521 745 
Q 2790 1088 2790 1658 
z
" id="TeXGyreHeros-Regular-70" transform="scale(0.015625)"/>
      </defs>
      <use xlink:href="#TeXGyreHeros-Regular-73"/>
      <use x="49.999985" xlink:href="#TeXGyreHeros-Regular-74"/>
      <use x="77.799973" xlink:href="#TeXGyreHeros-Regular-75"/>
      <use x="133.399963" xlink:href="#TeXGyreHeros-Regular-64"/>
      <use x="188.999954" xlink:href="#TeXGyreHeros-Regular-79"/>
      <use x="238.999939" xlink:href="#TeXGyreHeros-Regular-20"/>
      <use x="266.799927" xlink:href="#TeXGyreHeros-Regular-47"/>
      <use x="344.599915" xlink:href="#TeXGyreHeros-Regular-72"/>
      <use x="377.899902" xlink:href="#TeXGyreHeros-Regular-6f"/>
      <use x="433.499893" xlink:href="#TeXGyreHeros-Regular-75"/>
      <use x="489.099884" xlink:href="#TeXGyreHeros-Regular-70"/>
      <use x="544.699875" xlink:href="#TeXGyreHeros-Regular-73"/>
     </g>
    </g>
   </g>
   <g id="matplotlib.axis_2">
    <g id="ytick_1">
     <g id="line2d_19">
      <path clip-path="url(#pccbe58a951)" d="M 108 575.934057 
L 777.6 575.934057 
" style="fill:none;stroke:#000000;stroke-linecap:square;stroke-opacity:0.1;stroke-width:0.6;"/>
     </g>
     <g id="line2d_20">
      <defs>
       <path d="M 0 0 
L -4 0 
" id="m867e77e9eb" style="stroke:#000000;stroke-width:0.6;"/>
      </defs>
      <g>
       <use style="stroke:#000000;stroke-width:0.6;" x="108" xlink:href="#m867e77e9eb" y="575.934057"/>
      </g>
     </g>
     <g id="text_5">
      <!-- 0.05 -->
      <g transform="translate(59.192813 583.953744)scale(0.22 -0.22)">
       <defs>
        <path d="M 3245 2182 
Q 3245 1069 2864 486 
Q 2483 -96 1760 -96 
Q 1030 -96 652 489 
Q 275 1075 275 2220 
Q 275 3366 649 3952 
Q 1024 4538 1760 4538 
Q 3245 4538 3245 2182 
z
M 2669 2234 
Q 2669 4038 1760 4038 
Q 851 4038 851 2214 
Q 851 371 1747 371 
Q 2221 371 2445 822 
Q 2669 1274 2669 2234 
z
" id="TeXGyreHeros-Regular-30" transform="scale(0.015625)"/>
        <path d="M 1222 0 
L 557 0 
L 557 666 
L 1222 666 
L 1222 0 
z
" id="TeXGyreHeros-Regular-2e" transform="scale(0.015625)"/>
        <path d="M 3283 1504 
Q 3283 787 2851 345 
Q 2419 -96 1728 -96 
Q 1107 -96 732 205 
Q 358 506 224 1165 
L 787 1165 
Q 986 403 1715 403 
Q 2182 403 2444 672 
Q 2707 941 2707 1427 
Q 2707 1926 2441 2208 
Q 2176 2490 1715 2490 
Q 1453 2490 1267 2397 
Q 1082 2304 883 2067 
L 365 2067 
L 704 4442 
L 3046 4442 
L 3046 3885 
L 1158 3885 
L 979 2714 
Q 1357 2989 1818 2989 
Q 2470 2989 2876 2582 
Q 3283 2176 3283 1504 
z
" id="TeXGyreHeros-Regular-35" transform="scale(0.015625)"/>
       </defs>
       <use xlink:href="#TeXGyreHeros-Regular-30"/>
       <use x="55.599991" xlink:href="#TeXGyreHeros-Regular-2e"/>
       <use x="83.399979" xlink:href="#TeXGyreHeros-Regular-30"/>
       <use x="138.999969" xlink:href="#TeXGyreHeros-Regular-35"/>
      </g>
     </g>
    </g>
    <g id="ytick_2">
     <g id="line2d_21">
      <path clip-path="url(#pccbe58a951)" d="M 108 496.099882 
L 777.6 496.099882 
" style="fill:none;stroke:#000000;stroke-linecap:square;stroke-opacity:0.1;stroke-width:0.6;"/>
     </g>
     <g id="line2d_22">
      <g>
       <use style="stroke:#000000;stroke-width:0.6;" x="108" xlink:href="#m867e77e9eb" y="496.099882"/>
      </g>
     </g>
     <g id="text_6">
      <!-- 0.1 -->
      <g transform="translate(71.423438 504.119569)scale(0.22 -0.22)">
       <defs>
        <path d="M 2221 0 
L 1658 0 
L 1658 3232 
L 653 3232 
L 653 3635 
Q 1306 3718 1504 3865 
Q 1702 4013 1850 4538 
L 2221 4538 
L 2221 0 
z
" id="TeXGyreHeros-Regular-31" transform="scale(0.015625)"/>
       </defs>
       <use xlink:href="#TeXGyreHeros-Regular-30"/>
       <use x="55.599991" xlink:href="#TeXGyreHeros-Regular-2e"/>
       <use x="83.399979" xlink:href="#TeXGyreHeros-Regular-31"/>
      </g>
     </g>
    </g>
    <g id="ytick_3">
     <g id="line2d_23">
      <path clip-path="url(#pccbe58a951)" d="M 108 416.265707 
L 777.6 416.265707 
" style="fill:none;stroke:#000000;stroke-linecap:square;stroke-opacity:0.1;stroke-width:0.6;"/>
     </g>
     <g id="line2d_24">
      <g>
       <use style="stroke:#000000;stroke-width:0.6;" x="108" xlink:href="#m867e77e9eb" y="416.265707"/>
      </g>
     </g>
     <g id="text_7">
      <!-- 0.15 -->
      <g transform="translate(59.192813 424.285394)scale(0.22 -0.22)">
       <use xlink:href="#TeXGyreHeros-Regular-30"/>
       <use x="55.599991" xlink:href="#TeXGyreHeros-Regular-2e"/>
       <use x="83.399979" xlink:href="#TeXGyreHeros-Regular-31"/>
       <use x="138.999969" xlink:href="#TeXGyreHeros-Regular-35"/>
      </g>
     </g>
    </g>
    <g id="ytick_4">
     <g id="line2d_25">
      <path clip-path="url(#pccbe58a951)" d="M 108 336.431532 
L 777.6 336.431532 
" style="fill:none;stroke:#000000;stroke-linecap:square;stroke-opacity:0.1;stroke-width:0.6;"/>
     </g>
     <g id="line2d_26">
      <g>
       <use style="stroke:#000000;stroke-width:0.6;" x="108" xlink:href="#m867e77e9eb" y="336.431532"/>
      </g>
     </g>
     <g id="text_8">
      <!-- 0.2 -->
      <g transform="translate(71.423438 344.451219)scale(0.22 -0.22)">
       <defs>
        <path d="M 3270 3206 
Q 3270 2349 2310 1837 
L 1670 1491 
Q 1254 1248 1075 1043 
Q 896 838 851 557 
L 3238 557 
L 3238 0 
L 218 0 
Q 256 749 518 1155 
Q 781 1562 1491 1965 
L 2080 2298 
Q 2694 2650 2694 3194 
Q 2694 3558 2438 3801 
Q 2182 4045 1798 4045 
Q 1370 4045 1142 3785 
Q 915 3526 883 2963 
L 320 2963 
Q 365 4538 1818 4538 
Q 2458 4538 2864 4160 
Q 3270 3782 3270 3206 
z
" id="TeXGyreHeros-Regular-32" transform="scale(0.015625)"/>
       </defs>
       <use xlink:href="#TeXGyreHeros-Regular-30"/>
       <use x="55.599991" xlink:href="#TeXGyreHeros-Regular-2e"/>
       <use x="83.399979" xlink:href="#TeXGyreHeros-Regular-32"/>
      </g>
     </g>
    </g>
    <g id="ytick_5">
     <g id="line2d_27">
      <path clip-path="url(#pccbe58a951)" d="M 108 256.597357 
L 777.6 256.597357 
" style="fill:none;stroke:#000000;stroke-linecap:square;stroke-opacity:0.1;stroke-width:0.6;"/>
     </g>
     <g id="line2d_28">
      <g>
       <use style="stroke:#000000;stroke-width:0.6;" x="108" xlink:href="#m867e77e9eb" y="256.597357"/>
      </g>
     </g>
     <g id="text_9">
      <!-- 0.25 -->
      <g transform="translate(59.192813 264.617044)scale(0.22 -0.22)">
       <use xlink:href="#TeXGyreHeros-Regular-30"/>
       <use x="55.599991" xlink:href="#TeXGyreHeros-Regular-2e"/>
       <use x="83.399979" xlink:href="#TeXGyreHeros-Regular-32"/>
       <use x="138.999969" xlink:href="#TeXGyreHeros-Regular-35"/>
      </g>
     </g>
    </g>
    <g id="ytick_6">
     <g id="line2d_29">
      <path clip-path="url(#pccbe58a951)" d="M 108 176.763182 
L 777.6 176.763182 
" style="fill:none;stroke:#000000;stroke-linecap:square;stroke-opacity:0.1;stroke-width:0.6;"/>
     </g>
     <g id="line2d_30">
      <g>
       <use style="stroke:#000000;stroke-width:0.6;" x="108" xlink:href="#m867e77e9eb" y="176.763182"/>
      </g>
     </g>
     <g id="text_10">
      <!-- 0.3 -->
      <g transform="translate(71.423438 184.782869)scale(0.22 -0.22)">
       <defs>
        <path d="M 3238 1318 
Q 3238 672 2819 288 
Q 2400 -96 1702 -96 
Q 998 -96 627 262 
Q 256 621 205 1370 
L 768 1370 
Q 800 877 1030 640 
Q 1261 403 1722 403 
Q 2163 403 2412 643 
Q 2662 883 2662 1312 
Q 2662 1696 2422 1904 
Q 2182 2112 1722 2112 
L 1414 2112 
L 1414 2586 
Q 2067 2586 2297 2739 
Q 2528 2893 2528 3270 
Q 2528 3629 2313 3837 
Q 2099 4045 1728 4045 
Q 1293 4045 1081 3808 
Q 870 3571 864 3072 
L 301 3072 
Q 333 4538 1722 4538 
Q 2368 4538 2736 4205 
Q 3104 3872 3104 3290 
Q 3104 2624 2470 2374 
Q 2874 2234 3056 1984 
Q 3238 1734 3238 1318 
z
" id="TeXGyreHeros-Regular-33" transform="scale(0.015625)"/>
       </defs>
       <use xlink:href="#TeXGyreHeros-Regular-30"/>
       <use x="55.599991" xlink:href="#TeXGyreHeros-Regular-2e"/>
       <use x="83.399979" xlink:href="#TeXGyreHeros-Regular-33"/>
      </g>
     </g>
    </g>
    <g id="ytick_7">
     <g id="line2d_31">
      <path clip-path="url(#pccbe58a951)" d="M 108 96.929007 
L 777.6 96.929007 
" style="fill:none;stroke:#000000;stroke-linecap:square;stroke-opacity:0.1;stroke-width:0.6;"/>
     </g>
     <g id="line2d_32">
      <g>
       <use style="stroke:#000000;stroke-width:0.6;" x="108" xlink:href="#m867e77e9eb" y="96.929007"/>
      </g>
     </g>
     <g id="text_11">
      <!-- 0.35 -->
      <g transform="translate(59.192813 104.948694)scale(0.22 -0.22)">
       <use xlink:href="#TeXGyreHeros-Regular-30"/>
       <use x="55.599991" xlink:href="#TeXGyreHeros-Regular-2e"/>
       <use x="83.399979" xlink:href="#TeXGyreHeros-Regular-33"/>
       <use x="138.999969" xlink:href="#TeXGyreHeros-Regular-35"/>
      </g>
     </g>
    </g>
    <g id="ytick_8">
     <g id="line2d_33">
      <defs>
       <path d="M 0 0 
L -2 0 
" id="m0afd8a38d8" style="stroke:#000000;stroke-width:0.48;"/>
      </defs>
      <g>
       <use style="stroke:#000000;stroke-width:0.48;" x="108" xlink:href="#m0afd8a38d8" y="559.967222"/>
      </g>
     </g>
    </g>
    <g id="ytick_9">
     <g id="line2d_34">
      <g>
       <use style="stroke:#000000;stroke-width:0.48;" x="108" xlink:href="#m0afd8a38d8" y="544.000387"/>
      </g>
     </g>
    </g>
    <g id="ytick_10">
     <g id="line2d_35">
      <g>
       <use style="stroke:#000000;stroke-width:0.48;" x="108" xlink:href="#m0afd8a38d8" y="528.033552"/>
      </g>
     </g>
    </g>
    <g id="ytick_11">
     <g id="line2d_36">
      <g>
       <use style="stroke:#000000;stroke-width:0.48;" x="108" xlink:href="#m0afd8a38d8" y="512.066717"/>
      </g>
     </g>
    </g>
    <g id="ytick_12">
     <g id="line2d_37">
      <g>
       <use style="stroke:#000000;stroke-width:0.48;" x="108" xlink:href="#m0afd8a38d8" y="480.133047"/>
      </g>
     </g>
    </g>
    <g id="ytick_13">
     <g id="line2d_38">
      <g>
       <use style="stroke:#000000;stroke-width:0.48;" x="108" xlink:href="#m0afd8a38d8" y="464.166212"/>
      </g>
     </g>
    </g>
    <g id="ytick_14">
     <g id="line2d_39">
      <g>
       <use style="stroke:#000000;stroke-width:0.48;" x="108" xlink:href="#m0afd8a38d8" y="448.199377"/>
      </g>
     </g>
    </g>
    <g id="ytick_15">
     <g id="line2d_40">
      <g>
       <use style="stroke:#000000;stroke-width:0.48;" x="108" xlink:href="#m0afd8a38d8" y="432.232542"/>
      </g>
     </g>
    </g>
    <g id="ytick_16">
     <g id="line2d_41">
      <g>
       <use style="stroke:#000000;stroke-width:0.48;" x="108" xlink:href="#m0afd8a38d8" y="400.298872"/>
      </g>
     </g>
    </g>
    <g id="ytick_17">
     <g id="line2d_42">
      <g>
       <use style="stroke:#000000;stroke-width:0.48;" x="108" xlink:href="#m0afd8a38d8" y="384.332037"/>
      </g>
     </g>
    </g>
    <g id="ytick_18">
     <g id="line2d_43">
      <g>
       <use style="stroke:#000000;stroke-width:0.48;" x="108" xlink:href="#m0afd8a38d8" y="368.365202"/>
      </g>
     </g>
    </g>
    <g id="ytick_19">
     <g id="line2d_44">
      <g>
       <use style="stroke:#000000;stroke-width:0.48;" x="108" xlink:href="#m0afd8a38d8" y="352.398367"/>
      </g>
     </g>
    </g>
    <g id="ytick_20">
     <g id="line2d_45">
      <g>
       <use style="stroke:#000000;stroke-width:0.48;" x="108" xlink:href="#m0afd8a38d8" y="320.464697"/>
      </g>
     </g>
    </g>
    <g id="ytick_21">
     <g id="line2d_46">
      <g>
       <use style="stroke:#000000;stroke-width:0.48;" x="108" xlink:href="#m0afd8a38d8" y="304.497862"/>
      </g>
     </g>
    </g>
    <g id="ytick_22">
     <g id="line2d_47">
      <g>
       <use style="stroke:#000000;stroke-width:0.48;" x="108" xlink:href="#m0afd8a38d8" y="288.531027"/>
      </g>
     </g>
    </g>
    <g id="ytick_23">
     <g id="line2d_48">
      <g>
       <use style="stroke:#000000;stroke-width:0.48;" x="108" xlink:href="#m0afd8a38d8" y="272.564192"/>
      </g>
     </g>
    </g>
    <g id="ytick_24">
     <g id="line2d_49">
      <g>
       <use style="stroke:#000000;stroke-width:0.48;" x="108" xlink:href="#m0afd8a38d8" y="240.630522"/>
      </g>
     </g>
    </g>
    <g id="ytick_25">
     <g id="line2d_50">
      <g>
       <use style="stroke:#000000;stroke-width:0.48;" x="108" xlink:href="#m0afd8a38d8" y="224.663687"/>
      </g>
     </g>
    </g>
    <g id="ytick_26">
     <g id="line2d_51">
      <g>
       <use style="stroke:#000000;stroke-width:0.48;" x="108" xlink:href="#m0afd8a38d8" y="208.696852"/>
      </g>
     </g>
    </g>
    <g id="ytick_27">
     <g id="line2d_52">
      <g>
       <use style="stroke:#000000;stroke-width:0.48;" x="108" xlink:href="#m0afd8a38d8" y="192.730017"/>
      </g>
     </g>
    </g>
    <g id="ytick_28">
     <g id="line2d_53">
      <g>
       <use style="stroke:#000000;stroke-width:0.48;" x="108" xlink:href="#m0afd8a38d8" y="160.796347"/>
      </g>
     </g>
    </g>
    <g id="ytick_29">
     <g id="line2d_54">
      <g>
       <use style="stroke:#000000;stroke-width:0.48;" x="108" xlink:href="#m0afd8a38d8" y="144.829512"/>
      </g>
     </g>
    </g>
    <g id="ytick_30">
     <g id="line2d_55">
      <g>
       <use style="stroke:#000000;stroke-width:0.48;" x="108" xlink:href="#m0afd8a38d8" y="128.862677"/>
      </g>
     </g>
    </g>
    <g id="ytick_31">
     <g id="line2d_56">
      <g>
       <use style="stroke:#000000;stroke-width:0.48;" x="108" xlink:href="#m0afd8a38d8" y="112.895842"/>
      </g>
     </g>
    </g>
    <g id="ytick_32">
     <g id="line2d_57">
      <g>
       <use style="stroke:#000000;stroke-width:0.48;" x="108" xlink:href="#m0afd8a38d8" y="80.962172"/>
      </g>
     </g>
    </g>
    <g id="text_12">
     <!-- Extent (median) distribution -->
     <g transform="translate(49.743594 479.366953)rotate(-90)scale(0.25 -0.25)">
      <defs>
       <path d="M 3923 0 
L 576 0 
L 576 4666 
L 3808 4666 
L 3808 4141 
L 1171 4141 
L 1171 2650 
L 3712 2650 
L 3712 2125 
L 1171 2125 
L 1171 525 
L 3923 525 
L 3923 0 
z
" id="TeXGyreHeros-Regular-45" transform="scale(0.015625)"/>
       <path d="M 3027 0 
L 2406 0 
L 1568 1286 
L 717 0 
L 109 0 
L 1293 1709 
L 173 3354 
L 781 3354 
L 1587 2138 
L 2394 3354 
L 2995 3354 
L 1869 1734 
L 3027 0 
z
" id="TeXGyreHeros-Regular-78" transform="scale(0.015625)"/>
       <path d="M 1862 -1357 
L 1510 -1357 
Q 1030 -730 748 86 
Q 467 902 467 1657 
Q 467 2413 748 3225 
Q 1030 4038 1510 4666 
L 1862 4666 
Q 986 3251 986 1658 
Q 986 70 1862 -1357 
z
" id="TeXGyreHeros-Regular-28" transform="scale(0.015625)"/>
       <path d="M 4864 0 
L 4333 0 
L 4333 2310 
Q 4333 2630 4173 2806 
Q 4013 2982 3718 2982 
Q 3392 2982 3158 2726 
Q 2925 2470 2925 2106 
L 2925 0 
L 2394 0 
L 2394 2310 
Q 2394 2630 2230 2806 
Q 2067 2982 1773 2982 
Q 1446 2982 1216 2726 
Q 986 2470 986 2106 
L 986 0 
L 454 0 
L 454 3354 
L 941 3354 
L 941 2880 
Q 1158 3181 1398 3315 
Q 1638 3450 1971 3450 
Q 2592 3450 2874 2938 
Q 3110 3219 3340 3334 
Q 3571 3450 3904 3450 
Q 4371 3450 4617 3210 
Q 4864 2970 4864 2515 
L 4864 0 
z
" id="TeXGyreHeros-Regular-6d" transform="scale(0.015625)"/>
       <path d="M 979 0 
L 448 0 
L 448 3354 
L 979 3354 
L 979 0 
z
M 1050 3859 
L 384 3859 
L 384 4525 
L 1050 4525 
L 1050 3859 
z
" id="TeXGyreHeros-Regular-69" transform="scale(0.015625)"/>
       <path d="M 3424 13 
Q 3200 -45 3059 -45 
Q 2861 -45 2707 80 
Q 2554 205 2509 397 
Q 2048 -96 1370 -96 
Q 858 -96 563 160 
Q 269 416 269 870 
Q 269 1498 858 1741 
Q 1018 1805 1197 1840 
Q 1376 1875 1933 1946 
Q 2246 1984 2368 2067 
Q 2490 2150 2490 2317 
L 2490 2458 
Q 2490 2701 2294 2829 
Q 2099 2957 1741 2957 
Q 1370 2957 1178 2813 
Q 986 2669 954 2362 
L 416 2362 
Q 461 3450 1760 3450 
Q 2381 3450 2701 3216 
Q 3021 2982 3021 2534 
L 3021 666 
Q 3021 403 3309 403 
Q 3366 403 3424 416 
L 3424 13 
z
M 2490 1158 
L 2490 1658 
Q 2278 1562 1632 1472 
Q 1197 1408 1011 1277 
Q 826 1146 826 883 
Q 826 371 1485 371 
Q 1888 371 2189 592 
Q 2490 813 2490 1158 
z
" id="TeXGyreHeros-Regular-61" transform="scale(0.015625)"/>
       <path d="M 1356 3222 
Q 1638 2406 1638 1651 
Q 1638 896 1356 83 
Q 1075 -730 595 -1357 
L 243 -1357 
Q 1120 58 1120 1651 
Q 1120 3238 243 4666 
L 595 4666 
Q 1075 4038 1356 3222 
z
" id="TeXGyreHeros-Regular-29" transform="scale(0.015625)"/>
       <path d="M 3347 1715 
Q 3347 896 2947 400 
Q 2547 -96 1888 -96 
Q 1203 -96 826 480 
L 826 0 
L 346 0 
L 346 4666 
L 877 4666 
L 877 2899 
Q 1242 3450 1914 3450 
Q 2579 3450 2963 2989 
Q 3347 2528 3347 1715 
z
M 2790 1683 
Q 2790 2246 2521 2598 
Q 2253 2950 1811 2950 
Q 1389 2970 1133 2618 
Q 877 2266 877 1677 
Q 877 1107 1133 755 
Q 1389 403 1811 403 
Q 2246 403 2518 758 
Q 2790 1114 2790 1683 
z
" id="TeXGyreHeros-Regular-62" transform="scale(0.015625)"/>
      </defs>
      <use xlink:href="#TeXGyreHeros-Regular-45"/>
      <use x="66.699997" xlink:href="#TeXGyreHeros-Regular-78"/>
      <use x="116.699982" xlink:href="#TeXGyreHeros-Regular-74"/>
      <use x="144.499969" xlink:href="#TeXGyreHeros-Regular-65"/>
      <use x="200.09996" xlink:href="#TeXGyreHeros-Regular-6e"/>
      <use x="255.699951" xlink:href="#TeXGyreHeros-Regular-74"/>
      <use x="283.499939" xlink:href="#TeXGyreHeros-Regular-20"/>
      <use x="311.299927" xlink:href="#TeXGyreHeros-Regular-28"/>
      <use x="344.599915" xlink:href="#TeXGyreHeros-Regular-6d"/>
      <use x="427.899902" xlink:href="#TeXGyreHeros-Regular-65"/>
      <use x="483.499893" xlink:href="#TeXGyreHeros-Regular-64"/>
      <use x="539.099884" xlink:href="#TeXGyreHeros-Regular-69"/>
      <use x="561.299881" xlink:href="#TeXGyreHeros-Regular-61"/>
      <use x="616.899872" xlink:href="#TeXGyreHeros-Regular-6e"/>
      <use x="672.499863" xlink:href="#TeXGyreHeros-Regular-29"/>
      <use x="705.79985" xlink:href="#TeXGyreHeros-Regular-20"/>
      <use x="733.599838" xlink:href="#TeXGyreHeros-Regular-64"/>
      <use x="789.199829" xlink:href="#TeXGyreHeros-Regular-69"/>
      <use x="811.399826" xlink:href="#TeXGyreHeros-Regular-73"/>
      <use x="861.399811" xlink:href="#TeXGyreHeros-Regular-74"/>
      <use x="889.199799" xlink:href="#TeXGyreHeros-Regular-72"/>
      <use x="922.499786" xlink:href="#TeXGyreHeros-Regular-69"/>
      <use x="944.699783" xlink:href="#TeXGyreHeros-Regular-62"/>
      <use x="1000.299774" xlink:href="#TeXGyreHeros-Regular-75"/>
      <use x="1055.899765" xlink:href="#TeXGyreHeros-Regular-74"/>
      <use x="1083.699753" xlink:href="#TeXGyreHeros-Regular-69"/>
      <use x="1105.89975" xlink:href="#TeXGyreHeros-Regular-6f"/>
      <use x="1161.499741" xlink:href="#TeXGyreHeros-Regular-6e"/>
     </g>
    </g>
   </g>
   <g id="line2d_58">
    <path clip-path="url(#pccbe58a951)" d="M 219.6 395.001467 
L 219.6 554.04 
" style="fill:none;stroke:#000000;stroke-linecap:square;"/>
   </g>
   <g id="line2d_59">
    <path clip-path="url(#pccbe58a951)" d="M 219.6 271.593878 
L 219.6 169.926494 
" style="fill:none;stroke:#000000;stroke-linecap:square;"/>
   </g>
   <g id="line2d_60">
    <path clip-path="url(#pccbe58a951)" d="M 202.86 554.04 
L 236.34 554.04 
" style="fill:none;stroke:#000000;stroke-linecap:square;"/>
   </g>
   <g id="line2d_61">
    <path clip-path="url(#pccbe58a951)" d="M 202.86 169.926494 
L 236.34 169.926494 
" style="fill:none;stroke:#000000;stroke-linecap:square;"/>
   </g>
   <g id="line2d_62"/>
   <g id="line2d_63">
    <path clip-path="url(#pccbe58a951)" d="M 442.8 359.228128 
L 442.8 525.597607 
" style="fill:none;stroke:#000000;stroke-linecap:square;"/>
   </g>
   <g id="line2d_64">
    <path clip-path="url(#pccbe58a951)" d="M 442.8 217.256966 
L 442.8 100.44 
" style="fill:none;stroke:#000000;stroke-linecap:square;"/>
   </g>
   <g id="line2d_65">
    <path clip-path="url(#pccbe58a951)" d="M 426.06 525.597607 
L 459.54 525.597607 
" style="fill:none;stroke:#000000;stroke-linecap:square;"/>
   </g>
   <g id="line2d_66">
    <path clip-path="url(#pccbe58a951)" d="M 426.06 100.44 
L 459.54 100.44 
" style="fill:none;stroke:#000000;stroke-linecap:square;"/>
   </g>
   <g id="line2d_67"/>
   <g id="line2d_68">
    <path clip-path="url(#pccbe58a951)" d="M 666 437.737297 
L 666 521.555896 
" style="fill:none;stroke:#000000;stroke-linecap:square;"/>
   </g>
   <g id="line2d_69">
    <path clip-path="url(#pccbe58a951)" d="M 666 281.518715 
L 666 170.28092 
" style="fill:none;stroke:#000000;stroke-linecap:square;"/>
   </g>
   <g id="line2d_70">
    <path clip-path="url(#pccbe58a951)" d="M 649.26 521.555896 
L 682.74 521.555896 
" style="fill:none;stroke:#000000;stroke-linecap:square;"/>
   </g>
   <g id="line2d_71">
    <path clip-path="url(#pccbe58a951)" d="M 649.26 170.28092 
L 682.74 170.28092 
" style="fill:none;stroke:#000000;stroke-linecap:square;"/>
   </g>
   <g id="line2d_72"/>
   <g id="patch_3">
    <path clip-path="url(#pccbe58a951)" d="M 186.12 395.001467 
L 253.08 395.001467 
L 253.08 271.593878 
L 186.12 271.593878 
L 186.12 395.001467 
z
" style="fill:#add8e6;stroke:#000000;stroke-linejoin:miter;"/>
   </g>
   <g id="patch_4">
    <path clip-path="url(#pccbe58a951)" d="M 409.32 359.228128 
L 476.28 359.228128 
L 476.28 217.256966 
L 409.32 217.256966 
L 409.32 359.228128 
z
" style="fill:#90ee90;stroke:#000000;stroke-linejoin:miter;"/>
   </g>
   <g id="patch_5">
    <path clip-path="url(#pccbe58a951)" d="M 632.52 437.737297 
L 699.48 437.737297 
L 699.48 281.518715 
L 632.52 281.518715 
L 632.52 437.737297 
z
" style="fill:#fbdd7e;stroke:#000000;stroke-linejoin:miter;"/>
   </g>
   <g id="line2d_73">
    <path clip-path="url(#pccbe58a951)" d="M 186.12 326.311687 
L 253.08 326.311687 
" style="fill:none;stroke:#d55e00;stroke-linecap:square;"/>
   </g>
   <g id="line2d_74">
    <path clip-path="url(#pccbe58a951)" d="M 409.32 283.235303 
L 476.28 283.235303 
" style="fill:none;stroke:#d55e00;stroke-linecap:square;"/>
   </g>
   <g id="line2d_75">
    <path clip-path="url(#pccbe58a951)" d="M 632.52 388.041253 
L 699.48 388.041253 
" style="fill:none;stroke:#d55e00;stroke-linecap:square;"/>
   </g>
   <g id="patch_6">
    <path d="M 108 576.72 
L 108 77.76 
" style="fill:none;stroke:#000000;stroke-linecap:square;stroke-linejoin:miter;stroke-width:0.6;"/>
   </g>
   <g id="patch_7">
    <path d="M 777.6 576.72 
L 777.6 77.76 
" style="fill:none;stroke:#000000;stroke-linecap:square;stroke-linejoin:miter;stroke-width:0.6;"/>
   </g>
   <g id="patch_8">
    <path d="M 108 576.72 
L 777.6 576.72 
" style="fill:none;stroke:#000000;stroke-linecap:square;stroke-linejoin:miter;stroke-width:0.6;"/>
   </g>
   <g id="patch_9">
    <path d="M 108 77.76 
L 777.6 77.76 
" style="fill:none;stroke:#000000;stroke-linecap:square;stroke-linejoin:miter;stroke-width:0.6;"/>
   </g>
   <g id="text_13">
    <!-- Q1 = 0.163 -->
    <g style="fill:#ff0000;" transform="translate(253.08 395.001467)scale(0.15 -0.15)">
     <defs>
      <path d="M 4749 2310 
Q 4749 1242 4090 518 
L 4691 26 
L 4390 -346 
L 3718 211 
Q 3168 -115 2496 -115 
Q 1485 -115 864 547 
Q 243 1210 243 2298 
Q 243 3398 867 4089 
Q 1491 4781 2496 4781 
Q 3501 4781 4125 4089 
Q 4749 3398 4749 2310 
z
M 4154 2304 
Q 4154 3168 3696 3712 
Q 3238 4256 2496 4256 
Q 1754 4256 1296 3712 
Q 838 3168 838 2298 
Q 838 1434 1289 922 
Q 1741 410 2490 410 
Q 2874 410 3258 589 
L 2784 986 
L 3078 1344 
L 3648 877 
Q 4154 1446 4154 2304 
z
" id="TeXGyreHeros-Regular-51" transform="scale(0.015625)"/>
      <path d="M 3302 1965 
L 435 1965 
L 435 2400 
L 3302 2400 
L 3302 1965 
z
M 3302 800 
L 435 800 
L 435 1235 
L 3302 1235 
L 3302 800 
z
" id="TeXGyreHeros-Regular-3d" transform="scale(0.015625)"/>
      <path d="M 3283 1408 
Q 3283 742 2867 323 
Q 2451 -96 1798 -96 
Q 275 -96 275 2067 
Q 275 3258 694 3898 
Q 1114 4538 1901 4538 
Q 2419 4538 2761 4224 
Q 3104 3910 3187 3354 
L 2624 3354 
Q 2554 3680 2355 3859 
Q 2157 4038 1862 4038 
Q 1376 4038 1117 3593 
Q 858 3149 851 2317 
Q 1222 2822 1894 2822 
Q 2509 2822 2896 2432 
Q 3283 2042 3283 1408 
z
M 2707 1363 
Q 2707 1818 2470 2070 
Q 2234 2323 1824 2323 
Q 1402 2323 1142 2070 
Q 883 1818 883 1395 
Q 883 960 1145 681 
Q 1408 403 1805 403 
Q 2195 403 2451 672 
Q 2707 941 2707 1363 
z
" id="TeXGyreHeros-Regular-36" transform="scale(0.015625)"/>
     </defs>
     <use xlink:href="#TeXGyreHeros-Regular-51"/>
     <use x="77.799988" xlink:href="#TeXGyreHeros-Regular-31"/>
     <use x="133.399979" xlink:href="#TeXGyreHeros-Regular-20"/>
     <use x="161.199966" xlink:href="#TeXGyreHeros-Regular-3d"/>
     <use x="219.59996" xlink:href="#TeXGyreHeros-Regular-20"/>
     <use x="247.399948" xlink:href="#TeXGyreHeros-Regular-30"/>
     <use x="302.999939" xlink:href="#TeXGyreHeros-Regular-2e"/>
     <use x="330.799927" xlink:href="#TeXGyreHeros-Regular-31"/>
     <use x="386.399918" xlink:href="#TeXGyreHeros-Regular-36"/>
     <use x="441.999908" xlink:href="#TeXGyreHeros-Regular-33"/>
    </g>
   </g>
   <g id="text_14">
    <!-- Q2 = 0.206 -->
    <g style="fill:#008000;" transform="translate(253.08 326.311687)scale(0.15 -0.15)">
     <use xlink:href="#TeXGyreHeros-Regular-51"/>
     <use x="77.799988" xlink:href="#TeXGyreHeros-Regular-32"/>
     <use x="133.399979" xlink:href="#TeXGyreHeros-Regular-20"/>
     <use x="161.199966" xlink:href="#TeXGyreHeros-Regular-3d"/>
     <use x="219.59996" xlink:href="#TeXGyreHeros-Regular-20"/>
     <use x="247.399948" xlink:href="#TeXGyreHeros-Regular-30"/>
     <use x="302.999939" xlink:href="#TeXGyreHeros-Regular-2e"/>
     <use x="330.799927" xlink:href="#TeXGyreHeros-Regular-32"/>
     <use x="386.399918" xlink:href="#TeXGyreHeros-Regular-30"/>
     <use x="441.999908" xlink:href="#TeXGyreHeros-Regular-36"/>
    </g>
   </g>
   <g id="text_15">
    <!-- Q3 = 0.241 -->
    <g style="fill:#0000ff;" transform="translate(253.08 271.593878)scale(0.15 -0.15)">
     <defs>
      <path d="M 3328 1088 
L 2656 1088 
L 2656 0 
L 2093 0 
L 2093 1088 
L 179 1088 
L 179 1683 
L 2240 4538 
L 2656 4538 
L 2656 1594 
L 3328 1594 
L 3328 1088 
z
M 2093 1594 
L 2093 3578 
L 672 1594 
L 2093 1594 
z
" id="TeXGyreHeros-Regular-34" transform="scale(0.015625)"/>
     </defs>
     <use xlink:href="#TeXGyreHeros-Regular-51"/>
     <use x="77.799988" xlink:href="#TeXGyreHeros-Regular-33"/>
     <use x="133.399979" xlink:href="#TeXGyreHeros-Regular-20"/>
     <use x="161.199966" xlink:href="#TeXGyreHeros-Regular-3d"/>
     <use x="219.59996" xlink:href="#TeXGyreHeros-Regular-20"/>
     <use x="247.399948" xlink:href="#TeXGyreHeros-Regular-30"/>
     <use x="302.999939" xlink:href="#TeXGyreHeros-Regular-2e"/>
     <use x="330.799927" xlink:href="#TeXGyreHeros-Regular-32"/>
     <use x="386.399918" xlink:href="#TeXGyreHeros-Regular-34"/>
     <use x="441.999908" xlink:href="#TeXGyreHeros-Regular-31"/>
    </g>
   </g>
   <g id="text_16">
    <!-- Q1 = 0.186 -->
    <g style="fill:#ff0000;" transform="translate(476.28 359.228128)scale(0.15 -0.15)">
     <defs>
      <path d="M 3283 1280 
Q 3283 666 2857 285 
Q 2432 -96 1760 -96 
Q 1082 -96 659 285 
Q 237 666 237 1286 
Q 237 2016 1011 2387 
Q 666 2605 531 2809 
Q 397 3014 397 3328 
Q 397 3859 777 4198 
Q 1158 4538 1760 4538 
Q 2362 4538 2742 4198 
Q 3123 3859 3123 3328 
Q 3123 3008 2988 2803 
Q 2854 2598 2502 2387 
Q 3283 2016 3283 1280 
z
M 2547 3315 
Q 2547 3648 2332 3843 
Q 2118 4038 1760 4038 
Q 1402 4038 1187 3843 
Q 973 3648 973 3322 
Q 973 3002 1187 2806 
Q 1402 2611 1760 2611 
Q 2112 2611 2329 2803 
Q 2547 2995 2547 3315 
z
M 2707 1274 
Q 2707 1670 2448 1904 
Q 2189 2138 1760 2138 
Q 1331 2138 1072 1904 
Q 813 1670 813 1273 
Q 813 877 1072 640 
Q 1331 403 1747 403 
Q 2182 403 2444 636 
Q 2707 870 2707 1274 
z
" id="TeXGyreHeros-Regular-38" transform="scale(0.015625)"/>
     </defs>
     <use xlink:href="#TeXGyreHeros-Regular-51"/>
     <use x="77.799988" xlink:href="#TeXGyreHeros-Regular-31"/>
     <use x="133.399979" xlink:href="#TeXGyreHeros-Regular-20"/>
     <use x="161.199966" xlink:href="#TeXGyreHeros-Regular-3d"/>
     <use x="219.59996" xlink:href="#TeXGyreHeros-Regular-20"/>
     <use x="247.399948" xlink:href="#TeXGyreHeros-Regular-30"/>
     <use x="302.999939" xlink:href="#TeXGyreHeros-Regular-2e"/>
     <use x="330.799927" xlink:href="#TeXGyreHeros-Regular-31"/>
     <use x="386.399918" xlink:href="#TeXGyreHeros-Regular-38"/>
     <use x="441.999908" xlink:href="#TeXGyreHeros-Regular-36"/>
    </g>
   </g>
   <g id="text_17">
    <!-- Q2 = 0.233 -->
    <g style="fill:#008000;" transform="translate(476.28 283.235303)scale(0.15 -0.15)">
     <use xlink:href="#TeXGyreHeros-Regular-51"/>
     <use x="77.799988" xlink:href="#TeXGyreHeros-Regular-32"/>
     <use x="133.399979" xlink:href="#TeXGyreHeros-Regular-20"/>
     <use x="161.199966" xlink:href="#TeXGyreHeros-Regular-3d"/>
     <use x="219.59996" xlink:href="#TeXGyreHeros-Regular-20"/>
     <use x="247.399948" xlink:href="#TeXGyreHeros-Regular-30"/>
     <use x="302.999939" xlink:href="#TeXGyreHeros-Regular-2e"/>
     <use x="330.799927" xlink:href="#TeXGyreHeros-Regular-32"/>
     <use x="386.399918" xlink:href="#TeXGyreHeros-Regular-33"/>
     <use x="441.999908" xlink:href="#TeXGyreHeros-Regular-33"/>
    </g>
   </g>
   <g id="text_18">
    <!-- Q3 = 0.275 -->
    <g style="fill:#0000ff;" transform="translate(476.28 217.256966)scale(0.15 -0.15)">
     <defs>
      <path d="M 3328 3968 
Q 1862 2227 1485 0 
L 883 0 
Q 1363 2144 2746 3885 
L 294 3885 
L 294 4442 
L 3328 4442 
L 3328 3968 
z
" id="TeXGyreHeros-Regular-37" transform="scale(0.015625)"/>
     </defs>
     <use xlink:href="#TeXGyreHeros-Regular-51"/>
     <use x="77.799988" xlink:href="#TeXGyreHeros-Regular-33"/>
     <use x="133.399979" xlink:href="#TeXGyreHeros-Regular-20"/>
     <use x="161.199966" xlink:href="#TeXGyreHeros-Regular-3d"/>
     <use x="219.59996" xlink:href="#TeXGyreHeros-Regular-20"/>
     <use x="247.399948" xlink:href="#TeXGyreHeros-Regular-30"/>
     <use x="302.999939" xlink:href="#TeXGyreHeros-Regular-2e"/>
     <use x="330.799927" xlink:href="#TeXGyreHeros-Regular-32"/>
     <use x="386.399918" xlink:href="#TeXGyreHeros-Regular-37"/>
     <use x="441.999908" xlink:href="#TeXGyreHeros-Regular-35"/>
    </g>
   </g>
   <g id="text_19">
    <!-- Q1 = 0.137 -->
    <g style="fill:#ff0000;" transform="translate(699.48 437.737297)scale(0.15 -0.15)">
     <use xlink:href="#TeXGyreHeros-Regular-51"/>
     <use x="77.799988" xlink:href="#TeXGyreHeros-Regular-31"/>
     <use x="133.399979" xlink:href="#TeXGyreHeros-Regular-20"/>
     <use x="161.199966" xlink:href="#TeXGyreHeros-Regular-3d"/>
     <use x="219.59996" xlink:href="#TeXGyreHeros-Regular-20"/>
     <use x="247.399948" xlink:href="#TeXGyreHeros-Regular-30"/>
     <use x="302.999939" xlink:href="#TeXGyreHeros-Regular-2e"/>
     <use x="330.799927" xlink:href="#TeXGyreHeros-Regular-31"/>
     <use x="386.399918" xlink:href="#TeXGyreHeros-Regular-33"/>
     <use x="441.999908" xlink:href="#TeXGyreHeros-Regular-37"/>
    </g>
   </g>
   <g id="text_20">
    <!-- Q2 = 0.168 -->
    <g style="fill:#008000;" transform="translate(699.48 388.041253)scale(0.15 -0.15)">
     <use xlink:href="#TeXGyreHeros-Regular-51"/>
     <use x="77.799988" xlink:href="#TeXGyreHeros-Regular-32"/>
     <use x="133.399979" xlink:href="#TeXGyreHeros-Regular-20"/>
     <use x="161.199966" xlink:href="#TeXGyreHeros-Regular-3d"/>
     <use x="219.59996" xlink:href="#TeXGyreHeros-Regular-20"/>
     <use x="247.399948" xlink:href="#TeXGyreHeros-Regular-30"/>
     <use x="302.999939" xlink:href="#TeXGyreHeros-Regular-2e"/>
     <use x="330.799927" xlink:href="#TeXGyreHeros-Regular-31"/>
     <use x="386.399918" xlink:href="#TeXGyreHeros-Regular-36"/>
     <use x="441.999908" xlink:href="#TeXGyreHeros-Regular-38"/>
    </g>
   </g>
   <g id="text_21">
    <!-- Q3 = 0.234 -->
    <g style="fill:#0000ff;" transform="translate(699.48 281.518715)scale(0.15 -0.15)">
     <use xlink:href="#TeXGyreHeros-Regular-51"/>
     <use x="77.799988" xlink:href="#TeXGyreHeros-Regular-33"/>
     <use x="133.399979" xlink:href="#TeXGyreHeros-Regular-20"/>
     <use x="161.199966" xlink:href="#TeXGyreHeros-Regular-3d"/>
     <use x="219.59996" xlink:href="#TeXGyreHeros-Regular-20"/>
     <use x="247.399948" xlink:href="#TeXGyreHeros-Regular-30"/>
     <use x="302.999939" xlink:href="#TeXGyreHeros-Regular-2e"/>
     <use x="330.799927" xlink:href="#TeXGyreHeros-Regular-32"/>
     <use x="386.399918" xlink:href="#TeXGyreHeros-Regular-33"/>
     <use x="441.999908" xlink:href="#TeXGyreHeros-Regular-34"/>
    </g>
   </g>
   <g id="text_22">
    <!-- dth10 -->
    <g transform="translate(411.528516 72.310781)scale(0.25 -0.25)">
     <defs>
      <path d="M 3110 0 
L 2579 0 
L 2579 2323 
Q 2579 2643 2384 2812 
Q 2189 2982 1888 2982 
Q 1478 2982 1228 2672 
Q 979 2362 979 1850 
L 979 0 
L 448 0 
L 448 4666 
L 979 4666 
L 979 2893 
Q 1216 3200 1456 3325 
Q 1696 3450 2054 3450 
Q 2541 3450 2825 3203 
Q 3110 2957 3110 2534 
L 3110 0 
z
" id="TeXGyreHeros-Regular-68" transform="scale(0.015625)"/>
     </defs>
     <use xlink:href="#TeXGyreHeros-Regular-64"/>
     <use x="55.599991" xlink:href="#TeXGyreHeros-Regular-74"/>
     <use x="83.399979" xlink:href="#TeXGyreHeros-Regular-68"/>
     <use x="138.999969" xlink:href="#TeXGyreHeros-Regular-31"/>
     <use x="194.59996" xlink:href="#TeXGyreHeros-Regular-30"/>
    </g>
   </g>
  </g>
 </g>
 <defs>
  <clipPath id="pccbe58a951">
   <rect height="498.96" width="669.6" x="108" y="77.76"/>
  </clipPath>
 </defs>
</svg>
